<svg xmlns="http://www.w3.org/2000/svg" viewBox="0 0 100 100">
  <!-- Gradient background -->
  <defs>
    <linearGradient id="bgGrad" x1="0%" y1="0%" x2="100%" y2="100%">
      <stop offset="0%" style="stop-color:#667eea;stop-opacity:1" />
      <stop offset="100%" style="stop-color:#764ba2;stop-opacity:1" />
    </linearGradient>
    <linearGradient id="circleGrad" x1="0%" y1="0%" x2="100%" y2="100%">
      <stop offset="0%" style="stop-color:#60a5fa;stop-opacity:1" />
      <stop offset="100%" style="stop-color:#3b82f6;stop-opacity:1" />
    </linearGradient>
  </defs>
  
  <!-- Background -->
  <rect width="100" height="100" rx="20" fill="url(#bgGrad)"/>
  
  <!-- Outer circle (year wheel) -->
  <circle cx="50" cy="50" r="35" fill="none" stroke="url(#circleGrad)" stroke-width="3" opacity="0.8"/>
  
  <!-- Four season markers (colored dots around the wheel) -->
  <!-- Winter (top) - blue -->
  <circle cx="50" cy="15" r="4" fill="#60a5fa"/>
  
  <!-- Spring (left) - green -->
  <circle cx="15" cy="50" r="4" fill="#4ade80"/>
  
  <!-- Summer (bottom) - orange -->
  <circle cx="50" cy="85" r="4" fill="#fb923c"/>
  
  <!-- Autumn (right) - purple -->
  <circle cx="85" cy="50" r="4" fill="#c084fc"/>
  
  <!-- Center indicator (current week arrow) -->
  <path d="M50 50 L50 25" stroke="#60a5fa" stroke-width="2.5" stroke-linecap="round"/>
  <path d="M50 25 L46 29" stroke="#60a5fa" stroke-width="2.5" stroke-linecap="round"/>
  <path d="M50 25 L54 29" stroke="#60a5fa" stroke-width="2.5" stroke-linecap="round"/>
  
  <!-- Small dots around the wheel (week indicators) -->
  <circle cx="50" cy="20" r="1.5" fill="#93c5fd" opacity="0.6"/>
  <circle cx="62" cy="23" r="1.5" fill="#86efac" opacity="0.6"/>
  <circle cx="72" cy="30" r="1.5" fill="#86efac" opacity="0.6"/>
  <circle cx="77" cy="38" r="1.5" fill="#fdba74" opacity="0.6"/>
  <circle cx="80" cy="50" r="1.5" fill="#fdba74" opacity="0.6"/>
  <circle cx="77" cy="62" r="1.5" fill="#e9d5ff" opacity="0.6"/>
  <circle cx="72" cy="70" r="1.5" fill="#e9d5ff" opacity="0.6"/>
  <circle cx="62" cy="77" r="1.5" fill="#e9d5ff" opacity="0.6"/>
  <circle cx="50" cy="80" r="1.5" fill="#fb923c" opacity="0.6"/>
  <circle cx="38" cy="77" r="1.5" fill="#4ade80" opacity="0.6"/>
  <circle cx="28" cy="70" r="1.5" fill="#4ade80" opacity="0.6"/>
  <circle cx="23" cy="62" r="1.5" fill="#4ade80" opacity="0.6"/>
  <circle cx="20" cy="50" r="1.5" fill="#22c55e" opacity="0.6"/>
  <circle cx="23" cy="38" r="1.5" fill="#93c5fd" opacity="0.6"/>
  <circle cx="28" cy="30" r="1.5" fill="#93c5fd" opacity="0.6"/>
  <circle cx="38" cy="23" r="1.5" fill="#93c5fd" opacity="0.6"/>
</svg>
